name Walk5.mot
datacolumns 19
datarows 25
range 1.18000000 1.30000000
endheader

                time	   L_ground_force_vx	   L_ground_force_vy	   L_ground_force_vz	   L_ground_force_px	   L_ground_force_py	   L_ground_force_pz	   R_ground_force_vx	   R_ground_force_vy	   R_ground_force_vz	   R_ground_force_px	   R_ground_force_py	   R_ground_force_pz	   L_ground_torque_x	   L_ground_torque_y	   L_ground_torque_z	   R_ground_torque_x	   R_ground_torque_y	   R_ground_torque_z	
          1.18000000	          0.00000000	         -0.00000000	          0.00000000	         -0.00000000	          0.00000000	         -0.00000000	          0.36543051	         -7.91707550	         -0.51588876	          0.00021739	          0.00000000	         -0.00002347	          0.00000000	          0.00000000	          0.00000000	          0.00000000	         -0.00606926	          0.00000000	
          1.18500000	         -0.00000000	         -0.00000000	          0.00000000	          0.00000000	          0.00000000	          0.00000000	        -18.35541249	         41.39373253	         -2.44175699	         -0.20994317	          0.00000000	          0.21830462	          0.00000000	         -0.00000000	          0.00000000	          0.00000000	         -0.04305386	          0.00000000	
          1.19000000	         -0.00000000	          0.00000000	         -0.00000000	          0.00000000	          0.00000000	          0.00000000	        -40.23482992	        163.15510593	         -0.31043513	         -0.32004794	          0.00000000	          0.32945975	          0.00000000	         -0.00000000	          0.00000000	          0.00000000	          0.12175315	          0.00000000	
          1.19500000	         -0.00000000	          0.00000000	         -0.00000000	          0.00000000	          0.00000000	          0.00000000	        -45.91577399	        305.86919666	         11.18934304	         -0.33471983	          0.00000000	          0.34141068	          0.00000000	         -0.00000000	          0.00000000	          0.00000000	          0.24720254	          0.00000000	
          1.20000000	          0.00000000	          0.00000000	         -0.00000000	         -0.00000000	          0.00000000	         -0.00000000	        -36.12895494	        377.81296386	         26.36743076	         -0.32597372	          0.00000000	          0.33223826	          0.00000000	          0.00000000	          0.00000000	          0.00000000	          0.23676958	          0.00000000	
          1.20500000	          0.00000000	         -0.00000000	          0.00000000	         -0.00000000	          0.00000000	         -0.00000000	        -27.80748718	        398.69442149	         35.15616984	         -0.32026098	          0.00000000	          0.32824300	          0.00000000	          0.00000000	          0.00000000	          0.00000000	          0.17038252	          0.00000000	
          1.21000000	          0.00000000	         -0.00000000	          0.00000000	         -0.00000000	          0.00000000	         -0.00000000	        -29.44417797	        428.76467176	         35.00092271	         -0.31778866	          0.00000000	          0.32820415	          0.00000000	          0.00000000	          0.00000000	          0.00000000	          0.15260571	          0.00000000	
          1.21500000	         -0.00000000	         -0.00000000	          0.00000000	          0.00000000	          0.00000000	          0.00000000	        -43.42985738	        463.74415871	         28.99667979	         -0.31580759	          0.00000000	          0.32905573	          0.00000000	         -0.00000000	          0.00000000	          0.00000000	          0.19626382	          0.00000000	
          1.22000000	         -0.00000000	          0.00000000	         -0.00000000	          0.00000000	          0.00000000	          0.00000000	        -66.91009123	        476.27487527	         21.69512829	         -0.31333246	          0.00000000	          0.32982957	          0.00000000	         -0.00000000	          0.00000000	          0.00000000	          0.21430748	          0.00000000	
          1.22500000	         -0.00000000	          0.00000000	         -0.00000000	         -0.00000000	          0.00000000	         -0.00000000	        -89.37510676	        470.18035711	         14.31524681	         -0.30966101	          0.00000000	          0.33087097	          0.00000000	         -0.00000000	          0.00000000	          0.00000000	          0.25344359	          0.00000000	
          1.23000000	          0.00000000	         -0.00000000	          0.00000000	         -0.00000000	          0.00000000	         -0.00000000	       -101.18923221	        474.69173407	          4.19689856	         -0.30370192	          0.00000000	          0.33256079	          0.00000000	          0.00000000	          0.00000000	          0.00000000	          0.41022592	          0.00000000	
          1.23500000	          0.00000000	         -0.00000000	          0.00000000	         -0.00000000	          0.00000000	         -0.00000000	       -105.12059284	        512.23946910	        -11.14390803	         -0.29581830	          0.00000000	          0.33465967	          0.00000000	          0.00000000	          0.00000000	          0.00000000	          0.80161056	          0.00000000	
          1.24000000	         -0.00000000	         -0.00000000	          0.00000000	          0.00000000	          0.00000000	          0.00000000	       -112.75897217	        567.89729165	        -27.45844595	         -0.28899175	          0.00000000	          0.33645386	          0.00000000	         -0.00000000	          0.00000000	          0.00000000	          1.28641081	          0.00000000	
          1.24500000	         -0.00000000	          0.00000000	         -0.00000000	          0.00000000	          0.00000000	          0.00000000	       -128.50634016	        606.90960162	        -36.46213686	         -0.28438874	          0.00000000	          0.33764115	          0.00000000	         -0.00000000	          0.00000000	          0.00000000	          1.52069648	          0.00000000	
          1.25000000	         -0.00000000	          0.00000000	         -0.00000000	          0.00000000	          0.00000000	          0.00000000	       -144.94815825	        623.95689720	        -39.01637518	         -0.28023694	          0.00000000	          0.33804110	          0.00000000	         -0.00000000	          0.00000000	          0.00000000	          1.39732864	          0.00000000	
          1.25500000	          0.00000000	          0.00000000	         -0.00000000	         -0.00000000	          0.00000000	         -0.00000000	       -155.25897423	        640.90332859	        -41.56808930	         -0.27584606	          0.00000000	          0.33835828	          0.00000000	          0.00000000	          0.00000000	          0.00000000	          1.06956193	          0.00000000	
          1.26000000	          0.00000000	         -0.00000000	          0.00000000	         -0.00000000	          0.00000000	         -0.00000000	       -160.58478386	        668.70329692	        -44.70633680	         -0.27230335	          0.00000000	          0.33876692	          0.00000000	          0.00000000	          0.00000000	          0.00000000	          0.69105830	          0.00000000	
          1.26500000	          0.00000000	         -0.00000000	          0.00000000	         -0.00000000	          0.00000000	         -0.00000000	       -163.59431225	        699.40394265	        -45.82719454	         -0.27000717	          0.00000000	          0.33895530	          0.00000000	          0.00000000	          0.00000000	          0.00000000	          0.43001038	          0.00000000	
          1.27000000	         -0.00000000	         -0.00000000	          0.00000000	          0.00000000	          0.00000000	          0.00000000	       -164.39747843	        726.45430582	        -44.66966063	         -0.26860546	          0.00000000	          0.33889037	          0.00000000	         -0.00000000	          0.00000000	          0.00000000	          0.27695595	          0.00000000	
          1.27500000	         -0.00000000	          0.00000000	         -0.00000000	          0.00000000	          0.00000000	          0.00000000	       -162.42579968	        753.51205662	        -42.31529117	         -0.26773468	          0.00000000	          0.33853781	          0.00000000	         -0.00000000	          0.00000000	          0.00000000	          0.16570332	          0.00000000	
          1.28000000	         -0.00000000	          0.00000000	         -0.00000000	          0.00000000	          0.00000000	          0.00000000	       -158.04316544	        783.27602755	        -39.06973018	         -0.26709243	          0.00000000	          0.33806088	          0.00000000	         -0.00000000	          0.00000000	          0.00000000	          0.02131644	          0.00000000	
          1.28500000	          0.00000000	          0.00000000	         -0.00000000	         -0.00000000	          0.00000000	         -0.00000000	       -152.17416795	        812.22604282	        -34.79862319	         -0.26667633	          0.00000000	          0.33755263	          0.00000000	          0.00000000	          0.00000000	          0.00000000	         -0.18034357	          0.00000000	
          1.29000000	          0.00000000	         -0.00000000	          0.00000000	         -0.00000000	          0.00000000	         -0.00000000	       -145.58688660	        835.77995651	        -29.88734299	         -0.26644140	          0.00000000	          0.33710764	          0.00000000	          0.00000000	          0.00000000	          0.00000000	         -0.35720025	          0.00000000	
          1.29500000	          0.00000000	         -0.00000000	          0.00000000	          0.00000000	          0.00000000	          0.00000000	       -139.06635209	        852.04031342	        -25.19671671	         -0.26608244	          0.00000000	          0.33684556	          0.00000000	          0.00000000	          0.00000000	          0.00000000	         -0.52325268	          0.00000000	
          1.30000000	         -0.00000000	          0.00000000	         -0.00000000	          0.00000000	          0.00000000	          0.00000000	       -133.46252360	        861.20540050	        -21.41582499	         -0.26548685	          0.00000000	          0.33674844	          0.00000000	         -0.00000000	          0.00000000	          0.00000000	         -0.69188411	          0.00000000	
